<?xml version="1.0" encoding="iso-8859-1"?>
<!-- Generator: Adobe Illustrator 19.0.0, SVG Export Plug-In . SVG Version: 6.00 Build 0)  -->
<svg version="1.1" id="Capa_1" xmlns="http://www.w3.org/2000/svg" xmlns:xlink="http://www.w3.org/1999/xlink" x="0px" y="0px"
	 viewBox="0 0 512 512" style="enable-background:new 0 0 512 512;" xml:space="preserve">
<path style="fill:#303C42;" d="M237.604,448h-2.917c-9.417,0-18.542-3.354-25.729-9.448L3.75,264.125C1.375,262.104,0,259.125,0,256
	s1.375-6.104,3.75-8.125L208.938,73.458c7.208-6.104,16.333-9.458,25.75-9.458h2.917c21.917,0,39.729,17.823,39.729,39.719
	c0,11.823-5.208,22.948-14.292,30.521l-94.917,79.094h301.208C492.854,213.333,512,232.469,512,256s-19.146,42.667-42.667,42.667
	H168.125l94.917,79.094c9.083,7.573,14.292,18.698,14.292,30.521C277.333,430.177,259.521,448,237.604,448z"/>
<path style="fill:#1E88E5;" d="M27.146,256l195.625,166.292c3.313,2.813,7.563,4.375,11.917,4.375h2.917
	c10.146,0,18.396-8.25,18.396-18.385c0-5.469-2.417-10.625-6.625-14.125l-117.542-97.958c-3.438-2.875-4.729-7.604-3.188-11.833
	c1.521-4.219,5.521-7.031,10.021-7.031h330.667c11.771,0,21.333-9.573,21.333-21.333c0-11.76-9.563-21.333-21.333-21.333H138.667
	c-4.5,0-8.5-2.813-10.021-7.031c-1.542-4.229-0.25-8.958,3.188-11.833l117.542-97.958c4.208-3.5,6.625-8.656,6.625-14.125
	c0-10.135-8.25-18.385-18.396-18.385h-2.917c-4.354,0-8.604,1.563-11.938,4.385L27.146,256z"/>
<linearGradient id="SVGID_1_" gradientUnits="userSpaceOnUse" x1="-44.7689" y1="638.7437" x2="-24.8424" y2="629.4529" gradientTransform="matrix(21.3333 0 0 -21.3333 996.3334 13791.667)">
	<stop  offset="0" style="stop-color:#FFFFFF;stop-opacity:0.2"/>
	<stop  offset="1" style="stop-color:#FFFFFF;stop-opacity:0"/>
</linearGradient>
<path style="fill:url(#SVGID_1_);" d="M237.604,448h-2.917c-9.417,0-18.542-3.354-25.729-9.448L3.75,264.125
	C1.375,262.104,0,259.125,0,256s1.375-6.104,3.75-8.125L208.938,73.458c7.208-6.104,16.333-9.458,25.75-9.458h2.917
	c21.917,0,39.729,17.823,39.729,39.719c0,11.823-5.208,22.948-14.292,30.521l-94.917,79.094h301.208
	C492.854,213.333,512,232.469,512,256s-19.146,42.667-42.667,42.667H168.125l94.917,79.094c9.083,7.573,14.292,18.698,14.292,30.521
	C277.333,430.177,259.521,448,237.604,448z"/>
<g>
</g>
<g>
</g>
<g>
</g>
<g>
</g>
<g>
</g>
<g>
</g>
<g>
</g>
<g>
</g>
<g>
</g>
<g>
</g>
<g>
</g>
<g>
</g>
<g>
</g>
<g>
</g>
<g>
</g>
</svg>
